<?xml version="1.0" encoding="UTF-8" standalone="no"?>
<!-- Generator: Gravit.io -->
<svg xmlns="http://www.w3.org/2000/svg" xmlns:xlink="http://www.w3.org/1999/xlink" style="isolation:isolate" viewBox="0 0 1657 1653" width="1657pt" height="1653pt"><defs><clipPath id="_clipPath_XXwAIRRgyHc9xauQBB4Lo2dUTokDK6E5"><rect width="1657" height="1653"/></clipPath></defs><g clip-path="url(#_clipPath_XXwAIRRgyHc9xauQBB4Lo2dUTokDK6E5)"><linearGradient id="_lgradient_0" x1="0" y1="0.5" x2="1" y2="0.5" gradientTransform="matrix(1656.948,0,0,1656.948,0.532,-3.774)" gradientUnits="userSpaceOnUse"><stop offset="0%" stop-opacity="1" style="stop-color:rgb(100,180,150)"/><stop offset="98.75%" stop-opacity="1" style="stop-color:rgb(80,172,95)"/></linearGradient><mask id="_mask_QGJDZhv04KGQM4LPrVco3Yy8fODgFNAg"><polygon points="1546.485,1238.937,1243.243,1542.18,829.006,1653.174,414.769,1542.18,111.526,1238.937,0.532,824.7,111.526,410.463,414.769,107.22,829.006,-3.774,1243.243,107.22,1546.485,410.463,1657.48,824.7" fill="white" stroke="none"/></mask><polygon points="1546.485,1238.937,1243.243,1542.18,829.006,1653.174,414.769,1542.18,111.526,1238.937,0.532,824.7,111.526,410.463,414.769,107.22,829.006,-3.774,1243.243,107.22,1546.485,410.463,1657.48,824.7" fill="url(#_lgradient_0)"/><polygon points="1546.485,1238.937,1243.243,1542.18,829.006,1653.174,414.769,1542.18,111.526,1238.937,0.532,824.7,111.526,410.463,414.769,107.22,829.006,-3.774,1243.243,107.22,1546.485,410.463,1657.48,824.7" fill="url(#_lgradient_0)" mask="url(#_mask_QGJDZhv04KGQM4LPrVco3Yy8fODgFNAg)" stroke-width="60" stroke="rgb(0,0,0)" stroke-linejoin="miter" stroke-linecap="square" stroke-miterlimit="3"/><path d=" M 817.957 97.247 C 814.857 98.713 810.778 102.135 808.983 104.58 C 805.72 109.142 805.557 111.424 805.068 180.842 C 804.741 225.98 805.231 254.66 806.21 258.57 C 807.189 261.992 810.289 266.881 812.899 269.488 C 817.63 273.888 819.099 274.377 829.214 274.377 C 839.329 274.377 840.797 273.888 845.529 269.488 C 848.302 266.881 851.239 262.155 852.218 258.896 C 853.36 255.311 853.686 227.772 853.36 181.168 C 852.87 111.424 852.707 109.142 849.444 104.58 C 845.202 98.713 836.555 94.314 829.214 94.314 C 826.114 94.314 821.056 95.617 817.957 97.247 Z " fill="rgb(0,0,0)"/><path d=" M 471.873 185.988 C 459.658 189.574 451.84 203.758 455.749 215.17 C 458.192 222.343 518.618 330.431 524.808 338.908 C 532.788 349.668 547.61 351.462 557.871 342.821 C 567.806 334.507 569.924 324.236 564.223 312.987 C 560.64 305.977 501.028 200.334 497.282 194.302 C 494.839 190.389 483.437 184.031 479.366 184.357 C 478.063 184.357 474.805 185.172 471.873 185.988 Z " fill="rgb(0,0,0)"/><path d=" M 1180.641 192.924 C 1174.288 196.021 1172.496 198.792 1133.239 271.819 C 1107.665 319.58 1103.756 327.73 1103.756 333.924 C 1103.756 352.67 1127.375 365.385 1140.895 353.974 C 1144.968 350.551 1191.718 266.603 1211.102 228.133 C 1216.314 217.538 1215.663 207.92 1209.31 200.585 C 1200.514 190.642 1190.74 187.87 1180.641 192.924 Z " fill="rgb(0,0,0)"/><path d=" M 1444.205 451.605 C 1439.968 453.072 1331.121 517.436 1319.715 525.095 C 1312.872 529.821 1309.45 536.013 1309.45 544.16 C 1309.45 557.685 1317.923 567.136 1330.958 568.114 L 1339.594 568.928 L 1401.513 532.102 C 1436.058 511.407 1465.713 492.668 1468.809 489.572 C 1479.075 478.492 1474.838 459.264 1460.336 452.746 C 1452.841 449.324 1450.723 449.161 1444.205 451.605 Z " fill="rgb(0,0,0)"/><path d=" M 202.454 452.437 C 196.913 456.026 191.698 464.018 190.394 471.358 C 188.765 479.839 193.165 487.831 202.454 493.54 C 228.039 509.198 326.958 562.697 331.684 563.349 C 350.914 566.612 366.069 539.21 353.032 524.856 C 349.284 520.942 258.513 469.074 228.691 453.905 C 219.402 449.175 208.809 448.686 202.454 452.437 Z " fill="rgb(0,0,0)"/><path d=" M 110.552 804.279 C 90.512 810.155 91.001 844.109 111.366 849.822 C 115.114 850.802 144.766 851.455 187.453 851.455 C 250.831 851.455 257.999 851.128 263.213 848.516 C 279.505 840.354 280.809 816.358 265.331 806.238 C 261.258 803.463 255.23 803.299 188.267 802.973 C 147.047 802.81 113.484 803.299 110.552 804.279 Z " fill="rgb(0,0,0)"/><path d=" M 1395.65 805.762 C 1387.503 809.512 1383.104 816.848 1383.104 827.118 C 1383.104 837.715 1387.503 844.725 1396.139 848.474 C 1402.819 851.571 1406.893 851.734 1477.281 851.245 C 1549.299 850.756 1551.417 850.593 1555.979 847.333 C 1569.34 837.552 1569.34 816.685 1555.979 806.903 C 1551.417 803.643 1549.299 803.48 1476.955 803.154 C 1406.567 802.665 1402.168 802.828 1395.65 805.762 Z " fill="rgb(0,0,0)"/><path d=" M 262.808 1128.318 C 228.431 1148.852 198.778 1167.593 195.845 1170.69 C 184.929 1182.26 190.143 1202.305 205.784 1208.172 C 211.649 1210.453 214.093 1210.616 218.655 1209.15 C 223.706 1207.52 330.749 1144.615 344.76 1135.163 C 363.986 1122.125 354.536 1091.651 331.238 1091.651 C 325.535 1091.651 316.411 1096.54 262.808 1128.318 Z " fill="rgb(0,0,0)"/><path d=" M 1324.036 1088.757 C 1311.975 1095.597 1307.574 1112.046 1314.909 1122.632 C 1317.68 1126.866 1332.675 1136.149 1379.452 1162.859 C 1413.028 1181.914 1443.18 1198.363 1446.603 1199.34 C 1451.819 1200.968 1453.612 1200.805 1460.131 1197.711 C 1478.875 1188.591 1480.016 1165.953 1462.413 1155.041 C 1448.396 1146.247 1350.929 1091.037 1344.573 1088.268 C 1336.097 1084.359 1331.208 1084.522 1324.036 1088.757 Z " fill="rgb(0,0,0)"/><path d=" M 1117.38 1294.318 C 1106.128 1300.348 1100.91 1312.246 1105.313 1322.677 C 1107.922 1329.033 1167.116 1435.297 1175.106 1447.847 C 1183.912 1461.863 1200.056 1463.819 1211.96 1452.247 C 1218.156 1446.217 1220.765 1438.068 1218.646 1430.733 C 1217.83 1427.963 1201.197 1396.833 1181.629 1361.955 C 1143.308 1293.829 1141.188 1291.058 1129.284 1291.058 C 1126.023 1291.221 1120.642 1292.688 1117.38 1294.318 Z " fill="rgb(0,0,0)"/><path d=" M 537.671 1310.669 C 534.25 1312.789 520.727 1333.331 493.844 1377.025 C 458.489 1434.25 454.742 1440.935 454.742 1447.619 C 454.416 1460.988 465.169 1470.444 480.484 1470.444 C 486.675 1470.444 488.956 1469.466 493.681 1465.064 C 499.872 1459.358 570.42 1346.048 573.678 1336.592 C 580.358 1317.517 555.105 1299.42 537.671 1310.669 Z " fill="rgb(0,0,0)"/><path d=" M 823.301 1379.661 C 818.247 1381.942 811.562 1390.743 810.421 1396.61 C 809.931 1399.543 809.605 1434.256 809.931 1473.857 C 810.421 1543.608 810.584 1545.89 813.845 1550.453 C 823.627 1563.817 844.497 1563.817 854.28 1550.453 C 857.541 1545.89 857.704 1543.608 858.193 1473.042 C 858.519 1425.944 858.193 1398.076 857.052 1394.491 C 856.073 1391.232 853.139 1386.505 850.367 1383.898 C 846.291 1379.987 843.845 1379.172 836.182 1378.683 C 830.964 1378.52 825.258 1378.846 823.301 1379.661 Z " fill="rgb(0,0,0)"/><line x1="834.056" y1="1307.818" x2="829.301" y2="344.974" stroke-width="48" stroke="rgb(0,0,0)" stroke-linejoin="miter" stroke-linecap="round" stroke-miterlimit="3"/><line x1="1082.25" y1="410.463" x2="840.056" y2="817.198" stroke-width="46" stroke="rgb(0,0,0)" stroke-linejoin="miter" stroke-linecap="round" stroke-miterlimit="3"/><line x1="839.056" y1="827.198" x2="1082.25" y2="1238.937" stroke-width="46" stroke="rgb(0,0,0)" stroke-linejoin="miter" stroke-linecap="round" stroke-miterlimit="3"/></g></svg>
